<?xml version="1.0" standalone="no"?><svg xmlns="http://www.w3.org/2000/svg" viewBox="0 0 1440 320"><path fill="#98fb98" fill-opacity="1" d="M0,160L40,133.3C80,107,160,53,240,26.7C320,0,400,0,480,42.7C560,85,640,171,720,197.3C800,224,880,192,960,149.3C1040,107,1120,53,1200,58.7C1280,64,1360,128,1400,160L1440,192L1440,320L1400,320C1360,320,1280,320,1200,320C1120,320,1040,320,960,320C880,320,800,320,720,320C640,320,560,320,480,320C400,320,320,320,240,320C160,320,80,320,40,320L0,320Z"></path></svg>